# xmcd
#
# Track frame offsets:
#	150
#	14260
#	28439
#	41679
#	55232
#	74194
#	95520
#	110649
#	131697
#	146835
#	155537
#	168120
#	184261
#
# Disc length: 2700 seconds
# Revision: 0
# Processed by: cddbd v1.5.2PL0 Copyright (c) Steve Scherf et al.
# Submitted via: dBpowerAMP V12.0
#
DISCID=c40a8a0d
DTITLE=Rob Ickes and Trey Hensley - Before The Sun Goes Down
DYEAR=2015
DGENRE=Country
TTITLE0=Before the Sun Goes Down
TTITLE1=Lightning
TTITLE2=I'd Rather Be Gone
TTITLE3=Georgia on a Fast Train
TTITLE4=My Way is the Highway
TTITLE5=Workin' Man Can't Get Nowhere Today
TTITLE6=When My Last Song is Sung
TTITLE7=Pride and Joy
TTITLE8=More Than Roses
TTITLE9=Raisin' the Dickens
TTITLE10=Misery
TTITLE11=Little Cabin Home on the Hill
TTITLE12=There Ain't No Good Chain Gang
EXTD=
EXTT0=
EXTT1=
EXTT2=
EXTT3=
EXTT4=
EXTT5=
EXTT6=
EXTT7=
EXTT8=
EXTT9=
EXTT10=
EXTT11=
EXTT12=
PLAYORDER=
